# File created by Blade
# Date/Time:  Tue Jan 27 17:21:46 2015
#---------------------------------------------------------
:version 1.10
:name HOM
:units
  mass 1.0
  length 1.000000
  angle deg
:documentation
     Acclaim Skeleton File
:root
   axis xyz
   order TX TY TZ RX RY RZ
   position 0.000000 0.000000 0.000000
   orientation 0 0 0
:bonedata
   begin
      id 1
      name Spine_dum
      direction 0.000000 1.000000 0.000000
      length 7.539951
      axis 0.0 0.0 0.0 xyz
   end
   begin
      id 2
      name LeftUpLeg_dum
      direction 1.000000 0.000000 0.000000
      length 3.345476
      axis 0.0 0.0 0.0 xyz
   end
   begin
      id 3
      name RightUpLeg_dum
      direction -1.000000 0.000000 0.000000
      length 3.345476
      axis 0.0 0.0 0.0 xyz
   end
   begin
      id 4
      name Spine
      direction 0.000000 1.000000 0.000000
      length 0.000000
      axis 0.0 0.0 0.0 xyz
      dof rx ry rz
   end
   begin
      id 5
      name Spine_dum1
      direction 0.000000 1.000000 0.000000
      length 15.093809
      axis 0.0 0.0 0.0 xyz
   end
   begin
      id 6
      name Spine_dum2
      direction 0.000000 1.000000 0.000000
      length 9.738928
      axis 0.0 0.0 0.0 xyz
   end
   begin
      id 7
      name Spine_dum3
      direction 0.000000 1.000000 0.000000
      length 9.738928
      axis 0.0 0.0 0.0 xyz
   end
   begin
      id 8
      name Head
      direction 0.000000 1.000000 0.000000
      length 4.527550
      axis 0.0 0.0 0.0 xyz
      dof rx ry rz
   end
   begin
      id 9
      name LeftShoulder
      direction 1.000000 0.000000 0.000000
      length 7.084015
      axis 0.0 0.0 -90.0 xyz
      dof rx ry rz
   end
   begin
      id 10
      name LeftArm
      direction 1.000000 0.000000 0.000000
      length 10.259319
      axis 0.0 0.0 -90.0 xyz
      dof rx ry rz
   end
   begin
      id 11
      name LeftForeArm
      direction 1.000000 0.000000 0.000000
      length 9.896984
      axis 0.0 0.0 -90.0 xyz
      dof ry rz rx
   end
   begin
      id 12
      name LeftHand
      direction 0.000000 0.000000 0.000000
      length 0.000000
      axis 0.0 0.0 -90.0 xyz
      dof rx ry rz
   end
   begin
      id 13
      name LeftHand_dum1
      direction 0.000000 0.000000 0.000000
      length 0.000000
      axis 0.0 0.0 -90.0 xyz
   end
   begin
      id 14
      name LeftHand_dum2
      direction 1.000000 0.000000 0.000000
      length 3.937000
      axis 0.0 0.0 -90.0 xyz
   end
   begin
      id 15
      name LeftHandThumb1
      direction 0.000000 0.000000 1.000000
      length 3.937000
      axis 0.0 0.0 -90.0 xyz
      dof rx rz ry
   end
   begin
      id 16
      name RightShoulder
      direction -1.000000 0.000000 0.000000
      length 7.084015
      axis 0.0 0.0 90.0 xyz
      dof rx ry rz
   end
   begin
      id 17
      name RightArm
      direction -1.000000 0.000000 0.000000
      length 10.259319
      axis 0.0 0.0 90.0 xyz
      dof rx ry rz
   end
   begin
      id 18
      name RightForeArm
      direction -1.000000 0.000000 0.000000
      length 9.896984
      axis 0.0 0.0 90.0 xyz
      dof ry rz rx
   end
   begin
      id 19
      name RightHand
      direction 0.000000 0.000000 0.000000
      length 0.000000
      axis 0.0 0.0 90.0 xyz
      dof rx ry rz
   end
   begin
      id 20
      name RightHand_dum1
      direction 0.000000 0.000000 0.000000
      length 0.000000
      axis 0.0 0.0 90.0 xyz
   end
   begin
      id 21
      name RightHand_dum2
      direction -1.000000 0.000000 0.000000
      length 3.937000
      axis 0.0 0.0 90.0 xyz
   end
   begin
      id 22
      name RightHandThumb1
      direction 0.000000 0.000000 1.000000
      length 3.937000
      axis 0.0 0.0 90.0 xyz
      dof rx rz ry
   end
   begin
      id 23
      name LeftUpLeg
      direction 0.000000 -1.000000 0.000000
      length 19.114733
      axis 0.0 0.0 0.0 xyz
      dof rx ry rz
   end
   begin
      id 24
      name LeftLeg
      direction 0.000000 -1.000000 0.000000
      length 16.045604
      axis 0.0 0.0 0.0 xyz
      dof rx ry rz
   end
   begin
      id 25
      name LeftFoot
      direction 0.000000 -0.258819 0.965926
      length 5.543155
      axis 15.0 0.0 0.0 xyz
      dof rx ry rz
   end
   begin
      id 26
      name LeftToeBase
      direction 0.000000 0.000000 1.000000
      length 2.952750
      axis 0.0 0.0 0.0 xyz
      dof rx ry rz
   end
   begin
      id 27
      name RightUpLeg
      direction 0.000000 -1.000000 0.000000
      length 19.114733
      axis 0.0 0.0 0.0 xyz
      dof rx ry rz
   end
   begin
      id 28
      name RightLeg
      direction 0.000000 -1.000000 0.000000
      length 16.045604
      axis 0.0 0.0 0.0 xyz
      dof rx ry rz
   end
   begin
      id 29
      name RightFoot
      direction 0.000000 -0.258819 0.965926
      length 5.543155
      axis 15.0 0.0 0.0 xyz
      dof rx ry rz
   end
   begin
      id 30
      name RightToeBase
      direction 0.000000 0.000000 1.000000
      length 2.952750
      axis 0.0 0.0 0.0 xyz
      dof rx ry rz
   end
:hierarchy
   begin
      root Spine_dum LeftUpLeg_dum RightUpLeg_dum
      Spine_dum Spine
      LeftUpLeg_dum LeftUpLeg
      RightUpLeg_dum RightUpLeg
      Spine Spine_dum1 Spine_dum2 Spine_dum3
      Spine_dum1 Head
      Spine_dum2 LeftShoulder
      Spine_dum3 RightShoulder
      LeftShoulder LeftArm
      LeftArm LeftForeArm
      LeftForeArm LeftHand
      LeftHand LeftHand_dum1 LeftHand_dum2
      LeftHand_dum1 LeftHandThumb1
      RightShoulder RightArm
      RightArm RightForeArm
      RightForeArm RightHand
      RightHand RightHand_dum1 RightHand_dum2
      RightHand_dum1 RightHandThumb1
      LeftUpLeg LeftLeg
      LeftLeg LeftFoot
      LeftFoot LeftToeBase
      RightUpLeg RightLeg
      RightLeg RightFoot
      RightFoot RightToeBase
   end

# File created by Blade
# Date/Time:  Tue Jan 27 17:21:37 2015
# Frame Rate: 120.000 fps
#------------------------------------------------------
:FULLY-SPECIFIED
:DEGREES
576
root -3.887997 36.906447 -0.192215 1.012170 -56.127014 4.883879
Spine -8.353008 20.274959 -9.529528
Head 15.288316 9.453656 3.850239
LeftShoulder -9.821314 -7.297159 11.242950
LeftArm -24.380532 -29.834105 -26.121641
LeftForeArm 12.946237 -0.000000 72.502995
LeftHand -19.822578 -0.000000 42.266899
LeftHandThumb1 -26.253704 0.000000 33.147579
RightShoulder -5.220850 -19.569183 3.525360
RightArm 33.787500 -34.109504 45.513499
RightForeArm 171.784271 -0.000000 31.131125
RightHand 0.639388 0.000000 -2.937824
RightHandThumb1 -24.326973 -0.000000 -32.862282
LeftUpLeg -52.106052 -4.215708 11.414800
LeftLeg 130.092170 -0.000000 -0.000000
LeftFoot -3.730399 -11.603985 -16.901836
LeftToeBase 13.621886 -0.000000 -0.000000
RightUpLeg -8.799366 -2.451588 3.350617
RightLeg 17.214647 -0.000000 -0.000000
RightFoot -16.200599 9.032598 -6.316094
RightToeBase 2.919639 -0.000000 -0.000000
577
root -3.888274 36.908830 -0.189166 1.106640 -56.211228 4.856644
Spine -8.532728 20.328339 -9.549038
Head 15.336059 9.381249 3.955619
LeftShoulder -9.829880 -7.281329 11.247438
LeftArm -24.384022 -29.762365 -26.093179
LeftForeArm 12.957342 -0.000000 72.488237
LeftHand -19.844196 -0.000000 42.217444
LeftHandThumb1 -26.253704 0.000000 33.147579
RightShoulder -5.261556 -19.531501 3.555656
RightArm 33.726161 -34.071891 45.652495
RightForeArm 171.750915 0.000000 30.857835
RightHand 0.604833 -0.000000 -2.896970
RightHandThumb1 -24.326973 -0.000000 -32.862282
LeftUpLeg -52.002204 -4.100739 11.314679
LeftLeg 130.479724 -0.000000 -0.000000
LeftFoot -3.342829 -11.678447 -17.156876
LeftToeBase 13.346099 -0.000000 -0.000000
RightUpLeg -8.814873 -2.311942 3.354325
RightLeg 17.092250 -0.000000 -0.000000
RightFoot -16.162838 9.028216 -6.211496
RightToeBase 3.000325 -0.000000 -0.000000
578
root -3.888137 36.912891 -0.189965 1.282315 -56.307218 4.766867
Spine -8.751904 20.376038 -9.546058
Head 15.397888 9.325603 4.118929
LeftShoulder -9.856394 -7.244404 11.286156
LeftArm -24.391009 -29.759157 -26.127731
LeftForeArm 13.038114 -0.000000 72.488166
LeftHand -19.881975 -0.000000 42.105729
LeftHandThumb1 -26.253704 0.000000 33.147579
RightShoulder -5.291022 -19.523847 3.596887
RightArm 33.688196 -34.027285 45.755069
RightForeArm 171.726991 -0.000000 30.588081
RightHand 0.597049 -0.000000 -2.904743
RightHandThumb1 -24.326973 -0.000000 -32.862282
LeftUpLeg -51.939346 -3.951953 11.246048
LeftLeg 130.848993 -0.000000 -0.000000
LeftFoot -2.774536 -11.597274 -17.531205
LeftToeBase 13.035011 -0.000000 -0.000000
RightUpLeg -8.854226 -2.177511 3.395852
RightLeg 16.946051 -0.000000 -0.000000
RightFoot -16.084771 9.067100 -6.105144
RightToeBase 3.075814 -0.000000 -0.000000
579
root -3.886086 36.918031 -0.189836 1.466627 -56.413169 4.712667
Spine -9.017234 20.414046 -9.584163
Head 15.361331 9.273111 4.224765
LeftShoulder -9.895411 -7.195757 11.315097
LeftArm -24.394955 -29.741863 -26.129044
LeftForeArm 13.106976 0.000000 72.476601
LeftHand -19.929055 -0.000000 42.043382
LeftHandThumb1 -26.253704 0.000000 33.147579
RightShoulder -5.322236 -19.533949 3.630705
RightArm 33.665978 -33.983122 45.878880
RightForeArm 171.648417 0.000000 30.312733
RightHand 0.707675 -0.000000 -2.911490
RightHandThumb1 -24.326973 -0.000000 -32.862282
LeftUpLeg -51.908162 -3.753352 11.109746
LeftLeg 131.206544 -0.000000 -0.000000
LeftFoot -2.189720 -11.374925 -17.494275
LeftToeBase 12.574751 -0.000000 -0.000000
RightUpLeg -8.942955 -2.035655 3.416749
RightLeg 16.822763 -0.000000 -0.000000
RightFoot -15.985961 9.106405 -5.981926
RightToeBase 3.126529 -0.000000 -0.000000
